<?xml version="1.0" encoding="UTF-8"?>
<svg width="340" height="96" version="1.1" viewBox="0 0 340.00005 96.000033" xmlns="http://www.w3.org/2000/svg">
  <defs>
    <radialGradient id="ab" cx="-15256" cy="8846.1" r="174.94" fx="-15267" gradientTransform="matrix(.76 .03 .05 -1.12 11536 10237)" gradientUnits="userSpaceOnUse">
      <stop stop-color="#ffea00" offset=".1"/>
      <stop stop-color="#ffde00" offset=".17"/>
      <stop stop-color="#ffbf00" offset=".28"/>
      <stop stop-color="#ff8e00" offset=".43"/>
      <stop stop-color="#ff272d" offset=".77"/>
      <stop stop-color="#e0255a" offset=".87"/>
      <stop stop-color="#cc2477" offset=".95"/>
      <stop stop-color="#c42482" offset="1"/>
    </radialGradient>
    <radialGradient id="aa" cx="-7884.4" cy="8442.2" r="306.99" gradientTransform="matrix(1.23 0 0 -1.23 9918.1 10132)" gradientUnits="userSpaceOnUse">
      <stop stop-color="#00ccda" offset="0"/>
      <stop stop-color="#0083ff" offset=".22"/>
      <stop stop-color="#007af9" offset=".26"/>
      <stop stop-color="#0060e8" offset=".33"/>
      <stop stop-color="#005fe7" offset=".33"/>
      <stop stop-color="#2639ad" offset=".44"/>
      <stop stop-color="#401e84" offset=".52"/>
      <stop stop-color="#4a1475" offset=".57"/>
    </radialGradient>
    <linearGradient id="z" x1="209.78" x2="135.5" y1="101.08" y2="344.05" gradientTransform="matrix(1 0 0 -1 0 98.21)" gradientUnits="userSpaceOnUse">
      <stop stop-color="#000f43" stop-opacity=".4" offset="0"/>
      <stop stop-color="#001962" stop-opacity=".17" offset=".48"/>
      <stop stop-color="#002079" stop-opacity="0" offset="1"/>
    </linearGradient>
    <radialGradient id="y" cx="-8792.5" cy="7205.2" r="103.55" gradientTransform="matrix(1.22 .12 .12 -1.22 10221 9822)" gradientUnits="userSpaceOnUse">
      <stop stop-color="#ffea00" offset="0"/>
      <stop stop-color="#ff272d" offset=".5"/>
      <stop stop-color="#c42482" offset="1"/>
    </radialGradient>
    <radialGradient id="x" cx="-8801.8" cy="7304.5" r="172.92" gradientTransform="matrix(1.22 .12 .12 -1.22 10221 9822)" gradientUnits="userSpaceOnUse">
      <stop stop-color="#ffe900" offset="0"/>
      <stop stop-color="#ffaf0e" offset=".16"/>
      <stop stop-color="#ff7a1b" offset=".32"/>
      <stop stop-color="#ff4e26" offset=".47"/>
      <stop stop-color="#ff2c2e" offset=".62"/>
      <stop stop-color="#ff1434" offset=".76"/>
      <stop stop-color="#ff0538" offset=".89"/>
      <stop stop-color="#ff0039" offset="1"/>
    </radialGradient>
    <radialGradient id="w" cx="-8777.4" cy="7144.2" r="158.67" gradientTransform="matrix(1.22 .12 .12 -1.22 10221 9822)" gradientUnits="userSpaceOnUse">
      <stop stop-color="#ff272d" offset="0"/>
      <stop stop-color="#c42482" offset=".5"/>
      <stop stop-color="#620700" offset=".99"/>
    </radialGradient>
    <radialGradient id="v" cx="277.49" cy="231.11" r="303.48" fx="288.34" gradientTransform="matrix(1 0 0 -1 0 98.21)" gradientUnits="userSpaceOnUse">
      <stop stop-color="#ffea00" offset=".16"/>
      <stop stop-color="#ffde00" offset=".23"/>
      <stop stop-color="#ffbf00" offset=".37"/>
      <stop stop-color="#ff8e00" offset=".54"/>
      <stop stop-color="#ff272d" offset=".76"/>
      <stop stop-color="#f92433" offset=".8"/>
      <stop stop-color="#e91c45" offset=".84"/>
      <stop stop-color="#cf0e62" offset=".89"/>
      <stop stop-color="#b5007f" offset=".94"/>
    </radialGradient>
    <radialGradient id="u" cx="260.09" cy="371.86" r="345.87" gradientTransform="matrix(1 0 0 -1 0 98.21)" gradientUnits="userSpaceOnUse">
      <stop stop-color="#ffea00" offset=".28"/>
      <stop stop-color="#fd0" offset=".4"/>
      <stop stop-color="#ffba00" offset=".63"/>
      <stop stop-color="#ff9100" offset=".86"/>
      <stop stop-color="#ff6711" offset=".93"/>
      <stop stop-color="#ff4a1d" offset=".99"/>
    </radialGradient>
    <linearGradient id="t" x1="-9059.8" x2="-8940.6" y1="7275.7" y2="7306.1" gradientTransform="matrix(1.22 .12 .12 -1.22 10221 9822)" gradientUnits="userSpaceOnUse">
      <stop stop-color="#c42482" stop-opacity=".5" offset="0"/>
      <stop stop-color="#ff272d" stop-opacity=".5" offset=".47"/>
      <stop stop-color="#ff2c2c" stop-opacity=".51" offset=".49"/>
      <stop stop-color="#ff7a1a" stop-opacity=".72" offset=".68"/>
      <stop stop-color="#ffb20d" stop-opacity=".87" offset=".83"/>
      <stop stop-color="#ffd605" stop-opacity=".96" offset=".94"/>
      <stop stop-color="#ffe302" offset="1"/>
    </linearGradient>
    <linearGradient id="s" x1="129.91" x2="108.74" y1="1613.6" y2="1667.9" gradientTransform="matrix(1 .1 .1 -1 -232.8 1405)" gradientUnits="userSpaceOnUse">
      <stop stop-color="#891551" stop-opacity=".6" offset="0"/>
      <stop stop-color="#c42482" stop-opacity="0" offset="1"/>
    </linearGradient>
    <linearGradient id="r" x1="-156.48" x2="-119.96" y1="-66.73" y2="-108.2" gradientTransform="matrix(1 .1 .1 -1 246.33 -155.36)" gradientUnits="userSpaceOnUse">
      <stop stop-color="#891551" stop-opacity=".5" offset=".01"/>
      <stop stop-color="#ff272d" stop-opacity=".5" offset=".48"/>
      <stop stop-color="#ff272d" stop-opacity="0" offset="1"/>
    </linearGradient>
    <linearGradient id="q" x1="-86.15" x2="-86.12" y1="-137.49" y2="-108.48" gradientTransform="matrix(1 .1 .1 -1 246.33 -155.36)" gradientUnits="userSpaceOnUse">
      <stop stop-color="#c42482" offset="0"/>
      <stop stop-color="#c42482" stop-opacity=".81" offset=".08"/>
      <stop stop-color="#c42482" stop-opacity=".57" offset=".21"/>
      <stop stop-color="#c42482" stop-opacity=".36" offset=".33"/>
      <stop stop-color="#c42482" stop-opacity=".2" offset=".45"/>
      <stop stop-color="#c42482" stop-opacity=".09" offset=".56"/>
      <stop stop-color="#c42482" stop-opacity=".02" offset=".67"/>
      <stop stop-color="#c42482" stop-opacity="0" offset=".77"/>
    </linearGradient>
    <linearGradient id="p" x1="240.77" x2="359.36" y1="370" y2="104.8" gradientTransform="matrix(1 0 0 -1 0 98.21)" gradientUnits="userSpaceOnUse">
      <stop stop-color="#fff14f" offset="0"/>
      <stop stop-color="#ffee4c" offset=".27"/>
      <stop stop-color="#ffe643" offset=".45"/>
      <stop stop-color="#ffd834" offset=".61"/>
      <stop stop-color="#ffc41e" offset=".76"/>
      <stop stop-color="#ffab02" offset=".89"/>
      <stop stop-color="#ffa900" offset=".9"/>
      <stop stop-color="#ffa000" offset=".95"/>
      <stop stop-color="#ff9100" offset="1"/>
    </linearGradient>
    <linearGradient id="o" x1="264.18" x2="208" y1="217.47" y2="66.64" gradientTransform="matrix(1 0 0 -1 0 98.21)" gradientUnits="userSpaceOnUse">
      <stop stop-color="#ff8e00" offset="0"/>
      <stop stop-color="#ff8e00" stop-opacity=".86" offset=".04"/>
      <stop stop-color="#ff8e00" stop-opacity=".73" offset=".08"/>
      <stop stop-color="#ff8e00" stop-opacity=".63" offset=".13"/>
      <stop stop-color="#ff8e00" stop-opacity=".56" offset=".18"/>
      <stop stop-color="#ff8e00" stop-opacity=".51" offset=".23"/>
      <stop stop-color="#ff8e00" stop-opacity=".5" offset=".28"/>
      <stop stop-color="#ff8e00" stop-opacity=".48" offset=".39"/>
      <stop stop-color="#ff8e00" stop-opacity=".42" offset=".52"/>
      <stop stop-color="#ff8e00" stop-opacity=".31" offset=".68"/>
      <stop stop-color="#ff8e00" stop-opacity=".17" offset=".84"/>
      <stop stop-color="#ff8e00" stop-opacity="0" offset="1"/>
    </linearGradient>
  </defs>
  <title>firefox-logo-horizontal-lockup</title>
  <rect x=".5" y=".49999" width="339" height="95" fill="#fff" fill-rule="evenodd" stroke="#dadce0" stroke-dashoffset="89.999"/>
  <g transform="matrix(.18859 0 0 .18859 16 65.896)" stroke-width="5.3026">
    <path d="m298.87-250.27c-9.29 10.82-13.62 35.17-4.2 59.85s23.86 19.32 32.86 44.49c11.88 33.21 6.35 77.83 6.35 77.83s14.28 41.36 24.24-2.57c22.03-82.53-59.25-159.27-59.25-179.6z" fill="url(#ab)"/>
    <path d="m185.49 92.36c95.15 0 172.23-77.5 172.23-173.06 0-95.56-77.08-173.09-172.14-173.09s-172.14 77.54-172.14 173.1c-0.18 95.65 76.99 173.05 172.05 173.05z" fill="url(#aa)" data-name="Path"/>
    <path d="m314.54 26.02a95 95 0 0 1 -11.69 7.06 271.38 271.38 0 0 0 14.86 -24.43 96.25 96.25 0 0 0 9.77 -12.28c1.33-2.1 2.84-4.69 4.43-7.69 9.67-17.42 20.33-45.61 20.63-74.57v-2.21a100.07 100.07 0 0 0 -2.21 -21.69c0.08 0.56 0.15 1.11 0.22 1.66-0.09-0.43-0.16-0.86-0.25-1.29 0.14 0.79 0.26 1.55 0.38 2.32 2 16.77 0.57 33.12-6.47 45.18l-0.34 0.51c3.65-18.33 4.87-38.56 0.81-58.82 0 0-1.62-9.85-13.73-39.75-7-17.21-19.33-31.32-30.26-41.6-9.58-11.85-18.28-19.8-23.08-24.85-10-10.55-14.22-18.46-15.94-23.62-1.5-0.75-20.62-19.32-22.14-20-8.35 12.94-34.59 53.42-22.11 91.24 5.66 17.14 20 34.93 35 44.9 0.66 0.75 8.91 9.72 12.84 29.94 4.06 20.89 1.92 37.19-6.42 61.3-9.81 21.15-35 42.05-58.48 44.19-50.31 4.57-68.73-25.26-68.73-25.26 18 7.19 37.86 5.68 49.94-1.77s19.55-13.12 25.53-10.92 10.59-4.17 6.38-10.77a30.46 30.46 0 0 0 -30.81 -13.41c-12.2 2-23.37 11.64-39.35 2.29a31.91 31.91 0 0 1 -3 -2c-1.05-0.69 3.42 1.05 2.38 0.27a78.76 78.76 0 0 1 -10 -6.68c-0.24-0.22 2.41 0.85 2.18 0.63-14.94-12.3-13.08-20.62-12.61-25.83 0.38-4.17 3.09-9.51 7.66-11.68 2.21 1.21 3.58 2.13 3.58 2.13s-0.94-1.92-1.45-2.94c0.18-0.08 0.35-0.06 0.53-0.13 1.81 0.87 5.81 3.14 7.92 4.53a11.71 11.71 0 0 1 3.62 3.66s0.72-0.4 0.19-2.09a10.81 10.81 0 0 0 -3.75 -5.11h0.17a31.76 31.76 0 0 1 4.6 3.2c0.77-2.79 2.14-5.7 1.84-10.9-0.19-3.66-0.1-4.61-0.74-6-0.58-1.21 0.32-1.69 1.33-0.43a12.49 12.49 0 0 0 -0.86 -2.87v-0.09c1.25-4.36 26.48-15.7 28.32-17a26.13 26.13 0 0 0 7.42 -8.07c1.4-2.24 2.46-5.37 2.72-10.13 0.14-3.43-1.46-5.72-27-8.39-7-0.69-11.07-5.74-13.4-10.41-0.42-1-0.86-1.92-1.29-2.83a22 22 0 0 1 -1 -3.27 61.22 61.22 0 0 1 21.5 -29.74c0.56-0.51-2.24 0.13-1.68-0.38a62.41 62.41 0 0 1 5.74 -2.71c1-0.46-4.22-2.68-8.82-2.14a22 22 0 0 0 -8.18 2.15c1-1 4.34-2.39 3.56-2.38-5 0.77-11.32 3.71-16.69 7a4.24 4.24 0 0 1 0.32 -1.69c-2.5 1.06-8.64 5.35-10.42 9a16.16 16.16 0 0 0 0.1 -2.09 33.06 33.06 0 0 0 -5.11 5.38l-0.09 0.09c-14.49-5.84-27.25-6.22-38-3.6-2.36-2.37-3.51-0.64-8.89-12.44-0.37-0.71 0.28 0.7 0 0-0.88-2.29 0.54 3.05 0 0-9.13 7.12-21 15.2-26.72 20.9-0.07 0.23 6.66-1.9 0 0-2.33 0.67-2.17 2-2.53 14.55-0.09 1 0 2-0.09 2.86a80.19 80.19 0 0 0 -8.84 13.27c-5.89 10.16-12.39 26-18.68 51a129.62 129.62 0 0 1 10 -19.56c-5.23 13.3-10.29 34.17-11.3 66.33a186.79 186.79 0 0 1 4.86 -19.66 183.64 183.64 0 0 0 13.48 78 190.73 190.73 0 0 0 19.8 37 175.38 175.38 0 0 0 247.93 6.52q5.52-5.25 10.59-11z" fill="url(#z)"/>
    <path d="m275.9 50.49c63.19-7.32 91.17-72.44 55.24-73.72-32.45-1-85.14 77.17-55.24 73.72z" fill="url(#y)"/>
    <path d="m335.69-36.53c43.48-25.3 32.14-80 32.14-80s-16.78 19.49-28.18 50.56c-11.25 30.81-30.09 44.72-3.96 29.44z" fill="url(#x)"/>
    <path d="m197.67 82.83c60.61 19.34 112.71-28.41 80.6-44.36-29.2-14.38-109.37 35.21-80.6 44.36z" fill="url(#w)"/>
    <path d="m340.21-13.33c1.48-2.08 3.47-8.74 5.23-11.72 10.7-17.28 10.78-31 10.78-31.36 6.46-32.29 5.88-45.47 1.9-69.86-3.2-19.63-17.2-47.76-29.32-61.3-12.49-14-3.69-9.41-15.79-19.6-10.6-11.75-20.88-23.39-26.48-28.07-40.46-33.83-39.53-41.01-38.77-42.24l-0.57 0.64c-0.48-1.91-0.82-3.52-0.82-3.52s-22.12 22.12-26.77 59c-3 24.06 6 49.15 19 65.18a148 148 0 0 0 22.89 22.5c9.86 14.15 15.28 31.62 15.28 50.4a85.3 85.3 0 0 1 -104.29 83c-22.21-4.23-35-15.43-41.43-23a41.71 41.71 0 0 1 -5.22 -7.54c19.9 7.13 41.9 5.64 55.28-1.75s21.64-13 28.26-10.83 11.72-4.14 7.06-10.68-16.45-15.9-34.1-13.3c-13.5 2-25.86 11.55-43.55 2.27a35.6 35.6 0 0 1 -3.32 -2c-1.17-0.69 3.79 1 2.63 0.26a87 87 0 0 1 -11.09 -6.6c-0.26-0.22 2.67 0.84 2.41 0.62-16.54-12.2-14.47-20.44-14-25.61a14.85 14.85 0 0 1 8.48 -11.59c2.44 1.2 4 2.11 4 2.11s-1-1.91-1.61-2.92c0.2-0.08 0.39-0.06 0.58-0.13 2 0.87 6.43 3.12 8.76 4.49a12.1 12.1 0 0 1 4 3.63s0.8-0.39 0.21-2.07a10.78 10.78 0 0 0 -4.14 -5.07h0.19a35.12 35.12 0 0 1 5.12 3.2c0.85-2.76 2.37-5.65 2-10.81-0.2-3.63-0.11-4.57-0.82-6-0.64-1.2 0.36-1.67 1.47-0.42a11.51 11.51 0 0 0 -1 -2.85v-0.09c1.44-4.32 29.35-15.57 31.35-16.83a27.15 27.15 0 0 0 8.22 -8c1.55-2.22 2.72-5.33 3-10 0.1-2.13-0.56-3.81-8-5.42a199.16 199.16 0 0 0 -21.9 -2.9c-7.72-0.68-12.25-5.69-14.83-10.32-0.47-1-0.95-1.9-1.43-2.8a20.6 20.6 0 0 1 -1.1 -3.24 61.44 61.44 0 0 1 23.78 -29.51c0.62-0.51-2.48 0.13-1.86-0.38s5.46-2.3 6.35-2.68c1.09-0.46-4.67-2.65-9.76-2.12a26.15 26.15 0 0 0 -9 2.13c1.15-1 4.8-2.37 3.94-2.36-5.59 0.77-12.53 3.68-18.47 7a3.7 3.7 0 0 1 0.36 -1.67c-2.77 1-9.56 5.31-11.54 8.9a16 16 0 0 0 0.11 -2.08 34.42 34.42 0 0 0 -5.67 5.32l-0.1 0.08c-16-5.9-30.14-6.23-42-3.63-2.61-2.35-6.82-5.91-12.76-17.61-0.4-0.71-0.62 1.46-0.93 0.76-2.31-5.36-3.71-14.14-3.48-20.19 0 0-4.78 2.18-8.74 11.28-0.74 1.57-1.19 2.44-1.68 3.37-0.22 0.26 0.49-3 0.38-2.81-0.69 1.17-2.47 2.79-3.25 4.9-0.54 1.56-1.29 2.43-1.77 4.38l-0.11 0.18c0-0.57 0.14-2.36 0-2a91.77 91.77 0 0 0 -4.76 11.58 107.72 107.72 0 0 0 -5 28.93c-0.09 0.94 0 2-0.1 2.84-5 5.76-8.48 10.64-9.78 13.16-6.53 10.08-13.72 25.78-20.68 50.62a123.6 123.6 0 0 1 11.07 -19.4c-5.79 13.19-11.39 33.9-12.51 65.78a170.32 170.32 0 0 1 5.38 -19.49 165.08 165.08 0 0 0 14.92 77.4c8 17.49 26.35 53 71.24 80.74 0 0 15.27 11.37 41.52 19.89 1.94 0.7 3.9 1.4 5.91 2.07-0.63-0.25-1.24-0.52-1.83-0.8a187.88 187.88 0 0 0 53.86 7.89c68 0.06 88-27.24 88-27.24l-0.2 0.15c1-0.9 1.88-1.84 2.77-2.82-10.72 10.13-35.2 10.8-44.35 10.07 15.61-4.58 25.88-8.46 45.85-16.11q3.49-1.3 7.17-3l0.8-0.36 1.45-0.68a135.86 135.86 0 0 0 27.26 -17.07c20.06-16 24.42-31.64 26.71-41.94-0.32 1-1.31 3.29-2 4.78-5.17 11.05-16.62 17.83-29.06 23.65a268.48 268.48 0 0 0 16.45 -24.22c4.06-4 5.33-10.3 8.36-14.54z" fill="url(#v)"/>
    <path d="m315.8 24.99a128.58 128.58 0 0 0 21.09 -31c14.32-30.1 36.45-80.15 19-132.42-13.78-41.31-32.7-63.91-56.72-86-39-35.85-49.89-51.85-49.89-61.36 0 0-45 50.21-25.51 102.58s59.54 50.45 86 105.1c31.16 64.32-25.19 134.48-71.77 154.12 2.85-0.63 103.58-23.43 108.88-81-0.14 1.02-2.41 16.95-31.08 29.98z" fill="url(#u)"/>
    <path d="m185.3-161.88c0.15-3.4-1.61-5.69-29.75-8.33-11.58-1.07-16-11.77-17.36-16.27-4.12 10.7-5.82 21.92-4.9 35.49 0.62 8.89 6.6 18.44 9.46 24 0 0 0.63-0.82 0.93-1.13 5.38-5.6 27.91-14.13 30-15.34 2.32-1.43 11.23-7.92 11.62-18.42z" fill="url(#t)"/>
    <path d="m61.42-225.08c-0.4-0.71-0.62 1.46-0.93 0.76a51.68 51.68 0 0 1 -3.38 -20.18s-4.78 2.18-8.73 11.28c-0.74 1.63-1.21 2.53-1.68 3.43-0.22 0.26 0.49-3 0.38-2.81-0.69 1.17-2.47 2.79-3.24 4.8a28.16 28.16 0 0 0 -1.84 4.57c-0.15 0.55 0.15-2.45 0-2.09-9.2 17.78-11 44.66-10 43.53 19.59-20.91 42-25.87 42-25.87-2.39-1.76-7.58-6.84-12.69-17.42z" fill="url(#s)"/>
    <path d="m135.74-6.39c-27.05-11.55-57.81-27.84-56.65-64.85 1.58-48.74 45.45-39.11 45.45-39.11-1.66 0.4-6.08 3.55-7.65 6.91-1.66 4.2-4.68 13.69 4.48 23.63 14.39 15.59-29.56 37 38.28 77.43 1.71 0.93-15.9-0.55-23.92-4z" fill="url(#r)"/>
    <path d="m126.13-30.68c19.18 6.68 41.53 5.51 54.91-1.88 9-5 20.45-13 27.52-11a48.16 48.16 0 0 0 -16.33 -3.83 27.82 27.82 0 0 1 -3.12 -0.12 52 52 0 0 0 -6.11 0.33c-3.45 0.32-7.28 2.5-10.76 2.15-0.19 0 3.38-1.46 3.09-1.4-1.84 0.38-3.85 0.47-6 0.73-1.35 0.15-2.5 0.32-3.84 0.37-40 3.39-73.73-21.66-73.73-21.66-2.87 9.68 12.87 28.83 34.35 36.31z" fill="url(#q)"/>
    <path d="m315.72 25.21c40.41-39.68 60.86-87.91 52.22-142a114.29 114.29 0 0 1 -9.64 56.11c6.29-27.7 7-62.12-9.69-97.77-22.31-47.58-59-72.62-73-83.06-21.22-15.83-30-31.94-30.18-35.27-6.34 13-25.52 57.5-2.06 95.83 22 35.91 56.59 46.57 80.83 79.52 44.65 60.72-8.48 126.64-8.48 126.64z" fill="url(#p)"/>
    <path d="m309.93-78c-14.12-29.18-31.75-41.9-48.43-55.7 1.94 2.72 2.42 3.68 3.49 5.43 14.68 15.64 36.32 53.8 20.61 101.7-29.6 90.16-147.88 47.7-160.28 35.78 5 52.18 92.36 77.15 149.22 43.31 32.36-30.63 58.54-82.7 35.39-130.52z" fill="url(#o)"/>
  </g>
  <g transform="translate(-.88542)" fill="#363959">
    <path d="m218.85 49.788h-4.4782l-4.7716 8.3114-4.747-8.3114h-4.6526l7.02 10.724-7.9255 11.974h4.4802l5.6422-9.6049 5.5559 9.6049h4.7799l-7.8822-12.147zm-95.68 22.698h3.9628v-22.698h-3.9628zm12.935-17.91-0.38798-4.7881h-3.3899v22.696h3.973v-11.703c0-3.5295 2.585-7.4511 5.4266-7.4511a7.0979 7.0979 0 0 1 1.9814 0.25871l0.73286-3.8765a9.6788 9.6788 0 0 0 -2.2399 -0.2587c-2.7576 0-4.8642 1.7185-6.0735 5.1227zm-32.104 17.908h4.092v-13.05h9.6911v-3.2297h-9.6911v-10.122h11.198l0.47432-3.2728h-15.765zm21.111-31.131c-1.6427 0-2.7576 1.1621-2.7576 2.7143 0 1.507 1.119 2.6692 2.7576 2.6692 1.6795 0 2.8006-1.1621 2.8006-2.6692 0-1.5522-1.1211-2.7143-2.8006-2.7143zm64.2 8.0979c-6.4614 0-10.165 4.6875-10.165 11.703 0 7.1862 3.6608 11.845 10.122 11.845 6.4183 0 10.122-4.8661 10.122-11.888 0-7.1965-3.6177-11.662-10.079-11.662zm-0.039 20.364c-3.7902 0-5.8579-2.7575-5.8579-8.6563 0-5.944 2.1108-8.5208 5.901-8.5208 3.7471 0 5.8146 2.5768 5.8146 8.4777-4e-3 5.9399-2.0716 8.6994-5.8578 8.6994zm-16.05-21.6c0-2.1969 0.86247-3.8108 3.3591-3.8108a9.7343 9.7343 0 0 1 3.9626 0.86235l1.2484-2.8745c-1.8089-0.77611-3.2728-1.1621-5.4266-1.1621-4.6095 0-7.1062 2.893-7.1062 6.6832v1.8869h-4.053v3.047h4.0489v19.639h3.9628v-19.641h5.0816l0.43121-3.0572h-5.5128zm-18.889 1.2319c-5.8579 0-9.4325 4.8599-9.4325 11.923 0 7.1862 3.6958 11.629 10.036 11.629 3.1433 0 5.6852-1.0759 7.9254-2.8416l-1.7186-2.3694c-1.9813 1.3777-3.6608 1.9813-5.9008 1.9813-3.2729 0-5.7285-2.0245-6.1165-7.2786h14.471c0.0424-0.51741 0.0863-1.2483 0.0863-2.0245-0.0147-6.9316-3.2441-11.018-9.3606-11.018zm5.4265 10.114h-10.652c0.30185-5.0386 2.2832-6.9706 5.2972-6.9706 3.5748 0 5.3384 2.275 5.3384 6.7119zm63.67-8.4613c0-0.38189-0.26265-0.5749-0.80896-0.5749h-0.49681v1.928h0.29768v-0.78637h0.25455l0.4599 0.78637h0.35518l-0.52353-0.83565a0.52562 0.52562 0 0 0 0.4497 -0.5133zm-0.99981 0.31824v-0.6447h0.23397c0.29774 0 0.45992 0.07802 0.45992 0.32645 0 0.24844-0.16218 0.31824-0.41061 0.31824zm0.29157-1.6097a1.698 1.698 0 0 0 -1.694 1.7021v0.01437a1.6652 1.6652 0 0 0 1.6426 1.6877h0.0511a1.7021 1.7021 0 0 0 0.11898 -3.4022h-0.119zm0 3.1476a1.3941 1.3941 0 0 1 -1.4106 -1.3818v-0.05549a1.4188 1.4188 0 0 1 1.3838 -1.4537h0.0269a1.4023 1.4023 0 0 1 1.4249 1.3798v0.05754a1.4167 1.4167 0 0 1 -1.3756 1.4578h-0.0627z"/>
    <path d="m240.72 72.497-1.6274-5.0719h-7.8109l-1.6274 5.0719h-1.6545l6.2109-18.579h2.034l6.1838 18.579zm-9.0046-6.4551h6.9435l-3.4446-10.795zm21.8-13.697 1.573 0.18967v19.962h-1.356l-0.18995-2.1699c-0.81375 1.4105-2.197 2.4684-4.2583 2.4684-3.3088 0-5.316-2.8208-5.316-7.3231 0-4.3667 2.0886-7.4587 5.5601-7.4587 1.9529 0 3.1733 0.92221 3.987 1.9259zm-3.987 19.148c1.8986 0 3.0377-0.97623 3.987-2.6308v-7.4043c-0.8409-1.1933-1.9798-2.1426-3.7156-2.1426-2.4954 0-4.177 2.1426-4.1499 6.1295 0 3.9599 1.4917 6.0481 3.8785 6.0481zm19.196-19.148 1.573 0.18967v19.962h-1.3561l-0.1899-2.1699c-0.81359 1.4105-2.1968 2.4684-4.2581 2.4684-3.3088 0-5.316-2.8208-5.316-7.3231 0-4.3667 2.0884-7.4587 5.5601-7.4587 1.9528 0 3.1733 0.92221 3.987 1.9259zm-3.987 19.148c1.8985 0 3.0377-0.97623 3.987-2.6308v-7.4043c-0.84091-1.1933-1.98-2.1426-3.7158-2.1426-2.4952 0-4.1767 2.1426-4.1497 6.1295 0 3.9599 1.4917 6.0481 3.8783 6.0481zm9.6218-6.8075h7.1876v-1.3562h-7.1876zm16.131-6.6721c3.7699 0 5.9938 2.7124 5.9938 7.3501 0 4.5837-2.2782 7.4316-6.0211 7.4316-3.77 0-5.9938-2.8208-5.9938-7.3773 0-4.5566 2.3052-7.4045 6.021-7.4045zm0 1.329c-2.6852 0-4.3396 2.007-4.3396 6.0753 0 3.9868 1.6001 6.0482 4.3123 6.0482 2.7122 0 4.3666-2.0342 4.3666-6.1026 0-3.987-1.6002-6.0211-4.3395-6.0211zm16.212-1.329c-2.0612 0-3.6342 1.112-4.7736 2.7124l-0.13553-2.414h-1.3561v14.185h1.573v-10.279c1.1662-1.736 2.468-2.9293 4.3937-2.9293 1.7359 0 2.6851 0.94927 2.6851 3.2818v9.9265h1.573v-10.143c0-2.7393-1.3833-4.3396-3.9598-4.3396zm12.388 0c-2.685 0-4.7192 1.546-4.7192 3.7158 0 1.9798 1.2206 3.0917 4.2311 3.8783 2.9565 0.81366 3.743 1.4375 3.743 3.1461 0 1.7359-1.4377 2.7123-3.4989 2.7123-1.7358 0-2.9834-0.54246-4.1767-1.4918l-0.86802 1.0035c1.2207 1.0306 2.7666 1.817 5.0721 1.817 2.8207 0 5.126-1.4915 5.126-4.1223 0-2.414-1.4646-3.4717-4.5564-4.2855-2.5495-0.67801-3.4445-1.2746-3.4445-2.685 0-1.4646 1.2746-2.3867 3.1461-2.3867 1.4374 0 2.4952 0.43372 3.7429 1.3018l0.73212-1.0306c-1.329-1.0306-2.7121-1.5731-4.5295-1.5731z" fill-rule="evenodd"/>
    <text x="102.76428" y="34.780441" fill-opacity=".66" font-family="sans-serif" font-size="15.505px" letter-spacing="0px" stroke-width="1px" word-spacing="0px" style="line-height:125%" xml:space="preserve"><tspan x="102.76428" y="34.780441" stroke-width="1px">Available from</tspan></text>
  </g>
  <rect x="-21.49" y="-16.054" width="413.68" height="186.5" fill="none" opacity=".05" stroke="#dadce0" stroke-dashoffset="89.999"/>
</svg>